<svg id="Layer_1" data-name="Layer 1" xmlns="http://www.w3.org/2000/svg" viewBox="0 0 876.11 149.65"><title>Rightpoint_black_RGB</title><path d="M159.61,207.23,139.43,166H124.92v41.22H104.75V103.89h40.49c21,0,33.53,14.37,33.53,31.65,0,14.51-8.86,23.51-18.87,27.14L183,207.23Zm-15.67-85.34h-19v27.28h19c8.85,0,14.66-5.66,14.66-13.64s-5.81-13.64-14.66-13.64" transform="translate(-104.74 -103.02)"/><rect x="103.25" y="0.87" width="20.17" height="103.34"/><polygon points="312.26 0.87 312.26 43.1 277.29 43.1 277.29 0.87 257.11 0.87 257.11 104.2 277.29 104.2 277.29 60.95 312.26 60.95 312.26 104.2 332.44 104.2 332.44 0.87 312.26 0.87"/><polygon points="357.32 0.87 357.32 18.87 384.32 18.87 384.32 104.2 404.49 104.2 404.49 18.87 431.49 18.87 431.49 0.87 357.32 0.87"/><path d="M601.5,168.34H581.62v38.89H561.45V103.89H601.5c21.34,0,34.11,14.66,34.11,32.22s-12.77,32.22-34.11,32.22m-1-46.44H581.62v28.3h18.87c9.14,0,15-5.67,15-14.08s-5.81-14.22-15-14.22" transform="translate(-104.74 -103.02)"/><path d="M720,196.78c-7.25,7.26-16.11,11.32-27.86,11.32s-20.76-4.06-28-11.32C653.67,186.33,654,173.41,654,155.56s-.29-30.76,10.15-41.22c7.26-7.25,16.26-11.32,28-11.32s20.61,4.06,27.86,11.32c10.45,10.46,10.3,23.37,10.3,41.22s.15,30.77-10.3,41.22m-15-70.25A16.79,16.79,0,0,0,692.13,121a17.11,17.11,0,0,0-13.07,5.51c-3.92,4.36-4.93,9.14-4.93,29s1,24.68,4.93,29a17.09,17.09,0,0,0,13.07,5.51A16.77,16.77,0,0,0,705,184.59c3.92-4.35,5.08-9.14,5.08-29s-1.16-24.67-5.08-29" transform="translate(-104.74 -103.02)"/><rect x="649.16" y="0.87" width="20.17" height="103.34"/><polygon points="756.89 0.87 756.89 64.15 715.96 0.87 697.97 0.87 697.97 104.2 718.13 104.2 718.13 40.78 759.06 104.2 777.06 104.2 777.06 0.87 756.89 0.87"/><polygon points="801.95 0.87 801.95 18.87 828.94 18.87 828.94 104.2 849.12 104.2 849.12 18.87 876.11 18.87 876.11 0.87 801.95 0.87"/><path d="M159.61,207.23,139.43,166H124.92v41.22H104.75V103.89h40.49c21,0,33.53,14.37,33.53,31.65,0,14.51-8.86,23.51-18.87,27.14L183,207.23Zm-15.67-85.34h-19v27.28h19c8.85,0,14.66-5.66,14.66-13.64s-5.81-13.64-14.66-13.64" transform="translate(-104.74 -103.02)"/><rect x="103.25" y="0.87" width="20.17" height="103.34"/><polygon points="312.26 0.87 312.26 43.1 277.29 43.1 277.29 0.87 257.11 0.87 257.11 104.2 277.29 104.2 277.29 60.95 312.26 60.95 312.26 104.2 332.44 104.2 332.44 0.87 312.26 0.87"/><polygon points="357.32 0.87 357.32 18.87 384.32 18.87 384.32 104.2 404.49 104.2 404.49 18.87 431.49 18.87 431.49 0.87 357.32 0.87"/><path d="M601.5,168.34H581.62v38.89H561.45V103.89H601.5c21.34,0,34.11,14.66,34.11,32.22s-12.77,32.22-34.11,32.22m-1-46.44H581.62v28.3h18.87c9.14,0,15-5.67,15-14.08s-5.81-14.22-15-14.22" transform="translate(-104.74 -103.02)"/><path d="M720,196.78c-7.25,7.26-16.11,11.32-27.86,11.32s-20.76-4.06-28-11.32C653.67,186.33,654,173.41,654,155.56s-.29-30.76,10.15-41.22c7.26-7.25,16.26-11.32,28-11.32s20.61,4.06,27.86,11.32c10.45,10.46,10.3,23.37,10.3,41.22s.15,30.77-10.3,41.22m-15-70.25A16.79,16.79,0,0,0,692.13,121a17.11,17.11,0,0,0-13.07,5.51c-3.92,4.36-4.93,9.14-4.93,29s1,24.68,4.93,29a17.09,17.09,0,0,0,13.07,5.51A16.77,16.77,0,0,0,705,184.59c3.92-4.35,5.08-9.14,5.08-29s-1.16-24.67-5.08-29" transform="translate(-104.74 -103.02)"/><rect x="649.16" y="0.87" width="20.17" height="103.34"/><polygon points="756.89 0.87 756.89 64.15 715.96 0.87 697.97 0.87 697.97 104.2 718.13 104.2 718.13 40.78 759.06 104.2 777.06 104.2 777.06 0.87 756.89 0.87"/><polygon points="801.95 0.87 801.95 18.87 828.94 18.87 828.94 104.2 849.12 104.2 849.12 18.87 876.11 18.87 876.11 0.87 801.95 0.87"/><rect y="130.23" width="74.48" height="19.42"/><path d="M294.46,103c-11.61,0-20.61,4.06-27.86,11.32-10.45,10.46-10.16,23.37-10.16,41.22s-.29,30.77,10.16,41.22a38,38,0,0,0,27.86,11.32c11,0,20.9-3.19,29.17-11.75,7.26-7.55,9.87-16.54,9.87-31.49V149.76H299v16.83h14.43v3.93c0,5.36-1.31,10-4.65,13.78s-8.27,5.81-14.37,5.81c-5.51,0-10-2-12.91-5.36-3.92-4.36-4.94-9.29-4.94-29.18s1-24.67,4.94-29A16.77,16.77,0,0,1,294.46,121c9.35,0,15.1,4.43,17.83,12.51h20.57c-3.52-16.35-15.64-30.5-38.4-30.5" transform="translate(-104.74 -103.02)"/></svg>