<svg id="Layer_1" data-name="Layer 1" xmlns="http://www.w3.org/2000/svg" viewBox="0 0 1200.17 800.01"><defs><style>.cls-1{fill:#231f20;}</style></defs><title>Rightpoint_black_Knockout</title><path class="cls-1" d="M657.49,344.89H638.62v28.3h18.87c9.14,0,15-5.67,15-14.08S666.63,344.89,657.49,344.89Z" transform="translate(1.41 -0.87)"/><path class="cls-1" d="M-1.41.87v800H1198.76V.87Zm237.63,474.8H161.74V456.25h74.48Zm-19.62-45.44L196.43,389H181.92v41.22H161.75V326.89h40.49c21,0,33.53,14.37,33.53,31.65,0,14.51-8.86,23.51-18.87,27.14L240,430.23Zm68.56,0H265V326.89h20.17ZM390.5,387.85c0,15-2.61,23.95-9.87,31.49-8.27,8.57-18.14,11.75-29.17,11.75a38,38,0,0,1-27.86-11.32c-10.45-10.45-10.16-23.36-10.16-41.22s-.29-30.77,10.16-41.22c7.25-7.25,16.25-11.32,27.86-11.32,22.75,0,34.87,14.15,38.4,30.5H369.28c-2.72-8.08-8.48-12.51-17.83-12.51a16.77,16.77,0,0,0-12.91,5.52c-3.92,4.35-4.94,9.14-4.94,29s1,24.81,4.94,29.18c2.9,3.33,7.4,5.36,12.91,5.36,6.1,0,11-2.17,14.37-5.81s4.65-8.42,4.65-13.78v-3.93H356V372.76H390.5Zm103.68,42.37H474V387H439v43.25H418.86V326.89H439v42.23h35V326.89h20.17Zm99.05-85.33h-27v85.33H546.06V344.89h-27v-18h74.16Zm65.27,46.45H638.62v38.89H618.45V326.89H658.5c21.34,0,34.11,14.66,34.11,32.22S679.84,391.34,658.5,391.34ZM777,419.78c-7.25,7.26-16.11,11.32-27.86,11.32s-20.76-4.06-28-11.32C710.67,409.33,711,396.41,711,378.56s-.29-30.76,10.15-41.22c7.26-7.25,16.26-11.32,28-11.32s20.61,4.06,27.86,11.32c10.45,10.46,10.3,23.37,10.3,41.22S787.44,409.33,777,419.78Zm54.08,10.45H810.9V326.89h20.17Zm107.73,0h-18L879.88,366.8v63.42H859.71V326.89h18l40.93,63.28V326.89h20.17Zm99-85.33h-27v85.33H990.69V344.89h-27v-18h74.16Z" transform="translate(1.41 -0.87)"/><path class="cls-1" d="M749.13,344a17.11,17.11,0,0,0-13.07,5.51c-3.92,4.36-4.93,9.14-4.93,29s1,24.68,4.93,29a17.09,17.09,0,0,0,13.07,5.51A16.77,16.77,0,0,0,762,407.59c3.92-4.35,5.08-9.14,5.08-29s-1.16-24.67-5.08-29A16.79,16.79,0,0,0,749.13,344Z" transform="translate(1.41 -0.87)"/><path class="cls-1" d="M200.93,344.89h-19v27.28h19c8.85,0,14.66-5.66,14.66-13.64S209.79,344.89,200.93,344.89Z" transform="translate(1.41 -0.87)"/></svg>